<svg width="761" height="1066" viewBox="0 0 761 1066" fill="none" xmlns="http://www.w3.org/2000/svg">
<mask id="path-1-inside-1_4_2" fill="white">
<path d="M125.014 20.3606C118.347 31.5605 112.614 41.1605 112.347 41.5605C112.08 41.9606 100.214 121.427 85.8137 218.227L59.6803 394.094L46.347 428.094C29.147 471.294 11.2804 524.494 12.347 528.627C12.747 530.361 13.947 532.094 15.0137 532.494C16.0804 532.894 24.347 530.627 33.2803 527.427C42.2137 524.094 49.8137 521.694 50.0803 521.827C50.2137 522.094 39.2803 537.561 25.8137 556.227C12.2137 574.894 0.747019 591.427 0.347019 593.161C-1.11965 598.627 1.81368 600.094 13.947 600.094H25.147V642.094C25.147 678.361 25.4137 684.094 27.147 684.094C28.2137 684.094 35.4137 680.761 43.2803 676.627C51.0137 672.494 57.547 669.427 57.8137 669.694C58.0803 669.827 59.547 691.027 61.0137 716.761C64.347 769.694 64.6137 771.961 67.2803 773.027C68.347 773.427 73.2803 771.827 78.347 769.561C83.2803 767.294 87.947 765.427 88.6137 765.427C89.2803 765.427 102.347 793.561 117.547 827.961C132.88 862.361 146.08 890.894 147.147 891.294C148.214 891.694 150.88 890.494 153.147 888.627C155.28 886.761 157.814 885.427 158.614 885.694C159.414 885.961 175.814 906.894 195.014 932.094C227.147 974.494 230.214 978.094 233.814 978.094C237.414 978.094 238.214 977.294 242.614 968.094C245.28 962.627 247.947 958.361 248.614 958.761C249.28 959.161 265.014 975.561 283.68 995.427C302.214 1015.16 318.347 1031.96 319.414 1032.49C320.347 1033.16 322.347 1033.16 323.814 1032.76C326.214 1031.96 326.48 1030.49 326.747 1013.29L327.147 994.627L353.68 1030.89C374.88 1059.69 380.614 1066.76 381.68 1065.16C382.48 1064.09 394.614 1047.69 408.48 1028.76L433.814 994.227L434.214 1013.03C434.48 1030.63 434.747 1031.96 437.28 1032.76C438.747 1033.29 440.88 1032.89 442.08 1031.83C443.28 1030.89 459.414 1013.96 477.947 994.361C496.48 974.761 512.08 958.494 512.48 958.361C512.88 958.227 515.414 962.627 518.214 968.094C526.614 985.027 524.214 986.761 566.08 931.694C601.147 885.294 601.814 884.361 604.48 886.761C608.48 890.227 612.48 891.961 614.08 891.027C614.88 890.494 627.947 862.227 643.014 828.227C658.08 794.227 670.747 766.094 671.147 765.694C671.414 765.294 675.947 766.894 680.88 769.161C690.48 773.694 693.814 774.361 695.147 772.094C695.814 771.161 702.347 679.427 702.48 670.361C702.48 669.827 709.014 672.761 717.147 676.761C725.147 680.761 732.614 684.094 733.814 684.094C735.547 684.094 735.814 678.761 735.814 642.094V600.094H745.947C758.214 600.094 761.68 598.627 760.48 593.827C760.08 591.961 748.614 575.027 735.014 556.361C721.414 537.694 710.614 522.227 710.747 521.961C711.014 521.694 718.747 524.227 727.814 527.561C744.347 533.427 744.347 533.561 747.014 530.894C749.68 528.227 749.68 528.227 745.28 513.827C738.747 492.227 727.68 461.827 713.68 426.227L701.014 394.361L675.014 218.227L648.88 42.0939L637.014 22.6272C630.48 11.8273 624.214 2.22729 623.014 1.29395C620.48 -0.706055 629.68 -10.3062 549.014 78.7606C512.88 118.761 482.214 151.561 480.747 151.827C479.414 152.094 474.08 149.561 469.014 146.227L459.814 140.094H380.214H300.48L291.414 146.227C286.347 149.561 281.147 152.094 279.814 151.827C278.48 151.561 246.88 117.827 209.68 76.7606C144.48 4.76062 140.214 0.0938721 138.214 0.0938721C137.814 0.0938721 131.814 9.29395 125.014 20.3606ZM625.014 18.3606C629.28 27.0272 629.68 29.4272 626.747 29.4272C616.88 29.4272 585.414 81.2939 561.947 136.361L554.08 154.627L554.747 201.961C555.147 228.094 555.014 249.427 554.48 249.427C553.414 249.427 499.814 199.427 499.414 198.094C499.147 197.427 621.28 13.6938 622.08 13.4272C622.347 13.4272 623.547 15.6938 625.014 18.3606ZM200.48 105.961C233.814 155.827 261.147 197.161 261.014 197.961C260.88 199.294 236.48 222.627 213.547 243.294L204.88 251.294L205.28 201.294L205.68 151.427L194.614 126.761C175.814 84.7606 160.214 56.8939 145.547 39.4272C141.014 34.0939 136.48 29.9606 134.747 29.6938C133.147 29.4272 131.814 28.7606 131.814 28.0939C131.814 25.6938 137.68 14.7606 138.747 15.0272C139.28 15.2939 167.147 56.2272 200.48 105.961ZM239.947 124.761C271.014 160.761 297.28 191.161 298.347 192.494C300.08 194.627 299.147 194.761 284.88 194.761H269.68L241.147 151.027C225.414 127.027 204.614 95.1606 194.747 80.0939C184.88 65.0272 178.347 54.2272 180.214 56.0939C181.947 57.9606 208.88 88.8939 239.947 124.761ZM574.88 66.6273C570.614 73.1606 550.08 104.627 529.147 136.627L491.147 194.761H476.08C464.347 194.761 461.28 194.361 461.947 193.027C463.414 190.761 581.414 54.7606 581.947 54.7606C582.214 54.7606 579.014 60.0939 574.88 66.6273ZM671.147 256.227C681.814 326.894 690.48 384.894 690.48 385.161C690.48 385.294 685.947 379.961 680.214 373.161C669.947 360.627 625.547 315.427 608.48 300.227C602.08 294.494 600.614 292.627 603.814 294.494C635.014 312.361 647.414 318.761 649.68 318.494C652.48 318.094 652.48 317.961 652.08 235.427C651.947 189.961 651.414 146.761 651.014 139.427C650.48 132.094 650.614 126.494 651.014 126.894C651.547 127.294 660.614 185.561 671.147 256.227ZM108.614 224.094L107.547 318.761H110.747C112.48 318.761 123.947 313.027 136.347 306.094C148.747 299.027 159.014 293.561 159.147 293.694C159.414 293.961 154.48 298.627 148.214 304.094C130.08 319.961 99.0137 351.427 84.6137 368.494C77.2803 377.027 71.147 383.827 70.8803 383.561C70.347 383.027 108.347 129.427 109.014 129.427C109.28 129.427 109.147 171.961 108.614 224.094ZM321.147 222.361C329.547 233.827 336.88 243.961 337.414 244.894C338.08 245.961 327.814 255.427 306.88 272.894C289.414 287.561 273.68 300.761 271.68 302.494L268.08 305.427L238.347 283.427C221.947 271.294 208.48 260.761 208.48 260.227C208.48 259.561 222.347 246.094 239.147 230.227L269.814 201.427H287.814L305.814 201.561L321.147 222.361ZM521.814 230.361C538.747 246.227 552.614 259.561 552.747 259.961C553.014 260.761 495.414 303.827 493.28 304.494C491.68 304.894 422.214 246.894 422.747 245.561C423.014 245.027 430.347 234.894 439.147 223.027L455.014 201.427H473.147H491.147L521.814 230.361ZM402.747 243.961C425.947 259.561 453.147 280.494 453.147 282.761C453.147 283.561 446.747 302.627 438.88 325.161C422.214 372.894 422.48 371.161 429.68 399.961L434.614 419.161L431.147 423.961C418.347 442.227 381.547 491.294 380.48 491.561C379.68 491.827 367.147 475.694 352.614 455.694L326.08 419.427L331.014 400.094C333.814 389.027 335.814 377.694 335.814 373.427C335.814 367.561 332.747 357.427 321.28 324.094C307.414 284.094 306.88 281.961 309.147 280.094C326.614 265.561 377.147 229.561 380.08 229.427C380.614 229.427 390.88 235.961 402.747 243.961ZM233.814 289.294C249.547 301.027 262.48 311.027 262.48 311.561C262.48 311.961 257.547 320.761 251.547 331.027L240.48 349.561L219.814 348.894C208.48 348.494 180.614 347.694 158.08 347.294C135.547 346.761 117.28 345.961 117.414 345.427C118.614 342.627 202.08 266.894 203.414 267.294C204.347 267.694 217.947 277.561 233.814 289.294ZM602.08 306.761L644.347 346.094L611.814 346.894C593.814 347.427 565.947 348.227 549.814 348.627L520.48 349.427L509.014 330.361L497.547 311.161L527.014 289.027C543.147 276.894 557.147 267.027 558.08 267.161C559.014 267.294 578.747 285.161 602.08 306.761ZM314.347 328.627C324.48 356.627 327.814 367.427 327.814 372.361C327.814 377.561 320.747 408.761 319.147 410.494C318.88 410.761 312.747 403.561 305.414 394.494L292.214 378.094L269.947 364.894C248.614 352.227 247.814 351.694 249.547 348.894C250.614 347.427 256.08 338.094 261.814 328.227C271.814 311.161 273.014 309.827 285.68 299.294C294.88 291.694 299.414 288.761 300.08 289.827C300.48 290.761 307.014 308.227 314.347 328.627ZM500.48 331.027L512.88 351.961L490.747 365.027L468.48 378.094L455.28 394.494C448.08 403.427 441.814 410.627 441.547 410.227C439.947 408.627 432.88 378.361 432.88 372.761C432.88 367.561 435.947 357.561 445.814 330.094C453.014 310.361 459.28 292.761 459.947 291.027C461.147 287.961 461.547 288.227 474.614 299.027C487.947 309.827 488.48 310.494 500.48 331.027ZM191.147 355.961C239.147 357.027 246.48 357.561 246.48 360.094C246.48 361.961 242.614 362.761 221.814 364.761L201.147 366.894L142.214 392.227C108.88 406.494 81.6804 419.027 79.6804 420.894C77.8137 422.761 66.347 439.694 54.347 458.761C42.347 477.827 32.0803 493.427 31.547 493.427C30.8804 493.427 30.4804 492.761 30.4804 491.827C30.4804 488.361 63.147 407.161 66.347 402.494C68.2137 399.827 78.2137 388.094 88.4803 376.361L107.147 354.894H123.814C133.014 354.894 163.28 355.427 191.147 355.961ZM672.08 376.361C682.614 388.361 692.614 399.827 694.214 402.094C696.88 405.827 730.48 489.161 730.48 492.094C730.48 492.894 730.08 493.427 729.414 493.427C728.88 493.427 718.48 477.694 706.214 458.361C693.814 439.027 682.48 421.961 680.88 420.494C679.147 418.894 651.147 406.227 618.614 392.227L559.28 366.761L537.947 364.627C526.214 363.561 516.08 362.227 515.547 361.961C513.814 360.894 514.347 359.161 516.88 358.094C519.014 357.161 578.88 355.427 628.614 355.027L652.88 354.761L672.08 376.361ZM270.614 375.294C286.08 382.494 286.88 383.294 314.747 419.561C316.08 421.294 309.947 438.361 308.347 437.427C307.68 437.161 302.08 429.561 296.08 420.761C289.947 411.961 283.414 403.161 281.68 401.294C279.814 399.427 267.147 392.761 252.08 386.094C237.68 379.561 225.28 373.827 224.614 373.294C224.08 372.761 228.614 371.961 234.614 371.561C245.814 370.761 253.814 370.094 256.614 369.694C257.414 369.561 263.814 372.094 270.614 375.294ZM530.48 371.961L537.68 372.761L510.08 385.294C478.747 399.561 479.947 398.627 463.147 423.027C457.28 431.561 452.08 438.227 451.68 437.961C449.947 436.894 445.014 421.294 445.947 419.694C448.214 416.094 467.147 392.361 472.347 386.894C475.947 383.027 481.814 379.161 489.814 375.427C501.547 369.827 502.08 369.694 512.48 370.361C518.347 370.761 526.48 371.427 530.48 371.961ZM231.014 387.027L256.48 396.761L229.014 397.161L201.547 397.427L171.014 425.694C104.347 487.294 97.547 492.761 75.147 503.427C66.0804 507.694 26.4804 521.961 25.8137 521.161C25.2804 520.494 83.8137 428.894 86.2137 426.361C89.947 422.761 195.814 377.561 201.014 377.561C203.68 377.427 216.347 381.561 231.014 387.027ZM616.48 400.094C644.347 411.961 669.014 422.894 671.28 424.227C674.214 425.961 683.947 440.227 704.88 473.161C721.147 498.761 734.48 519.961 734.48 520.361C734.48 523.427 686.48 504.761 672.08 496.094C656.614 487.027 649.147 480.761 601.147 436.227L559.147 397.427L531.814 397.161L504.48 396.761L529.147 387.161C549.28 379.294 554.88 377.561 559.814 377.961C563.947 378.227 581.814 385.161 616.48 400.094ZM221.28 469.694L241.814 524.761L259.014 530.627L276.214 536.494L286.08 549.827C291.414 557.294 295.68 563.961 295.414 564.627C295.147 565.427 289.28 582.494 282.347 602.361C275.414 622.361 269.547 638.761 269.147 638.761C268.747 638.761 267.014 633.561 265.28 627.294C263.547 620.894 260.88 614.494 259.28 612.761C257.68 611.161 243.414 602.094 227.547 592.761C194.214 573.161 198.214 578.361 191.814 546.761C182.747 501.827 181.68 467.961 188.614 440.761C190.747 432.094 198.347 414.761 199.814 414.761C200.347 414.761 209.947 439.561 221.28 469.694ZM566.48 424.627C579.947 454.627 579.68 502.894 565.68 561.561L562.347 575.561L532.614 593.161C502.48 611.027 499.414 613.294 498.08 618.094C497.68 619.561 495.947 625.294 494.48 630.761L491.547 640.761L478.347 602.761C471.147 581.827 465.28 564.094 465.28 563.427C465.28 562.627 469.68 556.361 474.88 549.427L484.48 536.761L501.68 530.761L519.014 524.761L536.08 478.761C560.347 413.561 559.947 414.627 561.414 415.561C562.214 416.094 564.48 420.094 566.48 424.627ZM181.28 440.227C176.88 461.427 175.414 475.827 176.08 494.894L176.614 513.027L147.947 529.827C132.08 539.027 119.014 546.227 118.88 545.694C117.28 540.627 110.614 492.761 111.414 491.961C124.08 479.961 183.014 426.894 183.414 427.161C183.68 427.427 182.614 433.294 181.28 440.227ZM617.147 462.761C634.347 478.361 648.88 491.561 649.414 491.961C649.947 492.361 648.614 503.827 646.347 517.427C644.214 531.027 642.48 542.894 642.48 543.694C642.48 544.627 641.814 545.427 641.014 545.427C640.214 545.427 627.147 538.094 611.814 529.161L584.08 513.027L584.747 496.227C585.547 478.361 584.08 462.227 579.814 441.561C578.347 434.627 577.147 428.361 577.147 427.561C577.147 426.894 579.147 428.094 581.547 430.227C583.814 432.494 599.947 447.161 617.147 462.761ZM236.614 445.561L254.48 454.894L279.147 455.694C292.747 456.094 303.814 457.027 303.814 457.561C303.814 458.494 277.28 526.761 276.48 527.694C276.214 528.094 249.014 520.361 248.347 519.827C248.08 519.427 223.68 453.827 219.014 441.027C218.08 438.361 217.68 436.094 218.08 436.094C218.48 436.094 226.88 440.361 236.614 445.561ZM543.414 437.027C543.014 437.694 535.947 456.361 527.814 478.761C519.547 501.161 512.614 519.561 512.48 519.827C511.947 520.361 484.614 527.961 484.214 527.694C483.414 526.894 457.147 459.161 457.147 457.961C457.147 457.027 465.147 456.227 481.68 455.827L506.347 455.027L523.414 445.694C539.28 437.027 544.88 434.627 543.414 437.027ZM324.347 451.694C325.547 458.894 327.147 470.094 327.814 476.761C329.547 492.494 329.547 536.494 327.814 550.761C325.947 565.294 322.347 584.094 321.28 584.094C320.347 583.961 284.88 534.494 284.747 533.027C284.48 531.161 320.347 438.761 321.28 438.761C321.68 438.761 323.014 444.627 324.347 451.694ZM458.347 485.961C467.947 510.761 475.814 531.827 475.814 532.627C475.814 534.227 444.48 578.627 440.614 582.627C438.48 584.627 437.28 579.961 433.547 556.761C431.014 540.494 430.614 491.961 433.014 474.094C435.547 454.361 438.747 438.494 439.814 439.694C440.48 440.227 448.747 461.027 458.347 485.961ZM356.347 474.361C369.147 490.761 380.08 504.094 380.347 504.094C380.747 504.094 391.947 490.361 405.28 473.427C418.614 456.627 429.68 442.894 429.947 443.161C430.08 443.294 429.014 450.094 427.814 458.227C420.747 501.161 421.547 547.561 429.68 578.361L431.547 585.294L425.414 584.361C417.147 583.161 343.68 583.161 335.28 584.361C329.814 585.294 329.014 585.161 329.68 583.294C332.08 576.894 335.947 552.494 337.147 535.561C339.014 509.694 336.614 474.094 331.014 446.094C329.947 441.027 328.347 439.294 356.347 474.361ZM106.48 525.027C108.08 538.227 109.28 549.827 109.014 550.627C108.747 551.294 91.147 560.627 69.8137 571.161C33.6804 589.027 30.4804 590.361 21.4137 591.294L11.6804 592.094L22.0804 577.161C27.6804 568.894 39.547 551.827 48.0803 539.427L63.8137 516.761L82.8803 507.827C93.2803 503.027 102.214 499.427 102.614 499.827C103.014 500.361 104.747 511.694 106.48 525.027ZM678.48 508.094L696.48 516.361L721.814 552.761C735.68 572.761 747.28 589.827 747.547 590.627C747.814 591.561 745.147 591.694 739.014 591.161C731.014 590.361 726.08 588.361 691.947 571.694C671.014 561.561 653.147 552.627 652.48 551.961C650.614 550.494 657.147 498.494 659.147 499.294C659.814 499.561 668.614 503.561 678.48 508.094ZM183.947 547.561C186.88 561.294 190.347 575.027 191.68 578.094C193.014 581.161 197.947 589.027 202.747 595.561C207.414 602.094 212.48 609.161 213.947 611.427L216.48 615.427L212.347 612.761C170.08 585.561 123.814 555.294 123.814 554.761C123.947 553.827 177.68 521.694 178.347 522.227C178.48 522.361 181.147 533.827 183.947 547.561ZM637.014 554.761C637.014 555.561 545.947 614.627 545.414 614.094C545.147 613.961 550.08 606.627 556.214 597.827C562.48 589.161 568.48 579.827 569.547 577.027C570.747 574.361 573.814 561.427 576.48 548.361C579.147 535.427 581.547 523.961 581.814 523.161C582.214 522.094 592.614 527.561 609.68 537.827C624.747 546.761 637.014 554.361 637.014 554.761ZM119.28 578.361L123.014 593.161L104.48 612.361C74.6137 643.294 54.8803 660.361 38.0803 670.094L31.547 673.827L32.4804 635.961C33.0137 615.161 33.8137 597.694 34.347 597.161C34.8803 596.627 52.8804 588.094 74.4803 578.361C99.547 567.027 114.214 561.161 114.747 561.961C115.28 562.761 117.28 570.094 119.28 578.361ZM687.147 578.894C708.48 588.494 726.214 596.627 726.614 597.161C727.147 597.694 727.814 614.761 728.214 635.027C728.747 664.094 728.614 672.094 727.28 672.094C724.214 672.094 702.747 656.894 689.814 645.561C673.147 630.894 638.48 594.361 638.48 591.427C638.48 586.894 645.814 561.427 647.147 561.427C647.947 561.427 665.947 569.294 687.147 578.894ZM140.08 574.494C162.48 589.827 194.214 610.227 214.08 622.227C229.414 631.427 231.814 633.294 232.48 636.761C233.68 643.427 247.947 787.027 247.547 788.227C247.28 788.894 232.747 762.361 215.147 729.161C180.08 663.027 172.88 651.027 147.28 615.427C130.88 592.494 129.947 590.894 127.014 579.427C123.947 567.561 123.28 564.094 124.347 564.094C124.614 564.094 131.68 568.761 140.08 574.494ZM637.147 564.894C637.147 566.627 631.68 587.561 630.48 590.361C629.814 591.961 621.147 604.627 611.28 618.494C587.414 651.827 578.08 667.561 543.147 733.694C527.014 764.227 513.547 788.894 513.28 788.627C513.014 788.361 516.214 753.294 520.614 710.761L528.48 633.294L552.88 618.361C566.347 610.094 590.347 594.627 606.214 583.961C634.214 565.027 637.147 563.161 637.147 564.894ZM310.48 584.761L317.414 594.094L316.614 606.761C316.08 613.694 315.414 623.961 315.014 629.561L314.08 639.694L295.014 644.094C284.48 646.494 275.547 648.227 275.147 647.961C274.347 647.027 301.414 574.627 302.614 575.027C303.147 575.294 306.747 579.561 310.48 584.761ZM472.614 611.027C480.08 631.027 485.547 647.561 485.014 647.827C484.347 648.094 475.547 646.361 465.28 643.961L446.747 639.694L446.08 632.894C445.547 629.161 444.88 618.894 444.347 610.094L443.547 594.094L450.614 584.361C454.48 579.161 457.947 574.761 458.347 574.761C458.88 574.761 465.28 591.161 472.614 611.027ZM432.614 593.694C434.347 595.294 434.88 599.561 435.547 613.561L436.214 631.161L431.68 627.694C429.147 625.827 423.547 622.627 419.28 620.627C411.814 617.161 410.88 617.161 397.28 617.961C389.547 618.494 381.947 619.027 380.48 619.027C379.014 619.027 371.414 618.494 363.68 617.961C350.08 617.161 349.147 617.161 341.68 620.627C337.414 622.627 331.947 625.694 329.547 627.561L325.147 630.894V615.161C325.147 594.894 326.08 593.027 335.814 591.961C339.814 591.427 362.747 591.161 386.747 591.294C425.28 591.427 430.614 591.694 432.614 593.694ZM257.68 630.761C259.547 638.894 261.147 646.361 261.147 647.294C261.147 650.227 267.814 657.427 270.347 657.427C271.68 657.427 281.947 655.294 293.28 652.761L313.814 648.094L319.147 653.827C322.08 657.027 334.214 670.494 346.214 683.961L367.947 708.094L358.214 712.627C352.88 715.161 341.28 720.494 332.48 724.627C320.08 730.361 316.214 731.694 315.014 730.361C312.747 727.961 213.147 596.227 213.147 595.694C213.147 595.427 222.347 599.961 233.68 605.694L254.214 616.094L257.68 630.761ZM547.014 596.361C546.08 597.961 447.014 729.027 445.147 731.161C444.214 732.227 394.347 709.294 394.214 707.694C394.214 707.027 406.08 693.427 420.48 677.294C439.28 656.227 447.414 648.227 448.88 648.627C454.08 650.227 487.947 657.427 490.214 657.427C495.147 657.427 498.214 651.827 501.814 636.094C503.68 627.694 505.547 619.694 505.947 618.494C506.347 617.161 515.414 611.561 526.88 605.427C538.08 599.561 547.28 594.761 547.547 594.761C547.814 594.761 547.547 595.561 547.014 596.361ZM145.947 628.761L164.88 655.827L150.214 675.027C112.214 724.894 101.014 738.894 90.6137 749.694C80.6137 760.227 74.4803 764.494 72.2137 762.361C71.8137 761.961 70.347 739.561 69.0137 712.627L66.6137 663.561L73.547 656.227C93.147 635.161 125.814 601.427 126.347 601.427C126.747 601.561 135.68 613.827 145.947 628.761ZM664.48 632.227L693.814 663.027L693.414 671.961C692.747 691.027 690.48 738.761 689.68 750.361C688.88 762.094 688.747 762.761 685.814 762.761C683.68 762.761 679.014 758.761 670.347 749.694C658.88 737.694 650.747 727.694 609.947 674.361L595.814 655.961L614.747 628.761C625.28 613.694 634.08 601.427 634.48 601.427C634.88 601.427 648.48 615.294 664.48 632.227ZM295.414 719.027L341.814 781.294L356.88 781.427C365.014 781.427 371.814 781.961 371.814 782.627C371.814 785.427 329.28 869.161 327.547 869.827C326.48 870.227 324.88 870.094 324.08 869.561C323.28 869.161 306.347 835.694 286.48 795.427L250.347 722.094L247.014 689.427C245.28 671.427 243.814 655.294 243.814 653.427V650.094L246.48 653.427C247.947 655.294 269.947 684.761 295.414 719.027ZM513.814 687.561L510.48 722.094L474.88 794.094C455.414 833.694 438.48 867.161 437.414 868.494C435.68 870.361 435.014 870.494 432.88 869.161C431.547 868.227 420.88 848.094 409.147 824.361L387.947 781.427H403.28H418.48L467.414 715.961C494.347 679.827 516.48 650.894 516.747 651.694C517.014 652.361 515.68 668.494 513.814 687.561ZM160.88 773.961C157.014 873.694 156.88 875.161 154.08 877.561C152.48 878.894 150.747 879.961 150.347 880.094C149.947 880.094 137.68 853.027 123.28 819.827L97.0137 759.561L107.014 744.894C116.614 730.761 163.547 671.427 164.48 672.361C164.747 672.627 163.147 718.361 160.88 773.961ZM623.814 705.427C636.48 721.161 650.614 739.827 655.28 746.894L663.814 759.561L637.414 819.827C623.014 853.027 610.88 880.094 610.48 880.094C610.08 879.961 608.48 878.894 606.747 877.427C603.814 875.027 603.814 874.894 599.814 774.494C597.547 719.294 595.814 673.561 595.814 672.761C595.814 670.761 599.147 674.761 623.814 705.427ZM208.347 819.694L242.48 949.294L238.214 958.094C235.814 962.894 233.547 966.627 233.014 966.494C232.48 966.227 216.88 946.627 198.347 922.761L164.747 879.427L168.347 797.427C171.947 714.361 173.28 689.027 173.814 689.694C174.08 689.961 189.547 748.361 208.347 819.694ZM591.947 785.961L596.08 879.161L592.214 884.227C576.214 905.827 528.214 966.627 527.414 966.361C526.88 966.227 524.614 962.094 522.347 957.427L518.347 948.627L551.147 824.094C589.68 677.961 586.88 688.227 587.28 690.761C587.547 691.827 589.547 734.761 591.947 785.961ZM203.147 728.094C211.814 744.627 226.08 771.427 234.747 787.827C260.48 835.961 275.414 869.294 302.614 939.961L317.28 977.827L316.88 997.827L316.48 1017.69L284.08 982.894C266.347 963.827 251.28 946.761 250.48 945.161C249.147 941.961 186.48 700.094 186.48 698.094C186.48 696.361 186.614 696.494 203.147 728.094ZM542.347 822.094C514.88 928.094 509.814 946.494 506.747 950.094C504.747 952.494 489.947 968.627 473.814 985.961L444.48 1017.56L444.08 997.561L443.68 977.561L453.28 952.494C476.08 892.361 494.88 847.961 511.947 814.761C529.414 780.761 573.68 697.561 574.08 697.961C574.347 698.094 560.08 753.961 542.347 822.094ZM409.947 724.361C425.547 731.961 438.347 738.494 438.48 739.027C438.48 739.694 433.28 747.294 426.88 756.094L415.147 771.961L380.48 772.094H345.814L333.547 755.427L321.28 738.894L349.547 724.894C365.147 717.294 378.614 710.894 379.68 710.894C380.747 710.761 394.347 716.894 409.947 724.361ZM287.547 816.094C307.28 856.627 319.547 880.361 321.547 881.827C324.48 884.094 325.147 884.227 328.747 882.227C331.947 880.627 335.547 875.027 346.48 853.827C353.947 839.294 364.48 819.161 369.814 809.027C375.014 798.761 379.814 790.494 380.48 790.494C381.014 790.494 391.814 810.494 404.347 834.894C428.88 882.627 431.147 885.827 437.947 882.627C441.147 881.027 446.48 870.894 472.88 816.761C489.947 781.561 504.48 752.361 504.88 751.827C505.414 751.294 504.48 765.294 502.747 783.161L499.68 815.427L467.547 896.761L435.414 978.094L410.08 1014.09C396.08 1033.83 383.68 1051.43 382.48 1053.03C380.214 1055.83 380.08 1055.69 369.68 1041.03C363.947 1032.76 351.814 1015.69 342.88 1003.03C333.814 990.361 325.547 978.094 324.48 975.694C323.414 973.427 308.747 936.361 291.814 893.561L261.147 815.694L258.48 788.227C257.014 773.161 255.547 758.361 255.147 755.427C254.614 752.094 254.747 750.627 255.547 751.427C256.214 752.094 270.614 781.294 287.547 816.094Z"/>
</mask>
<path d="M125.014 20.3606C118.347 31.5605 112.614 41.1605 112.347 41.5605C112.08 41.9606 100.214 121.427 85.8137 218.227L59.6803 394.094L46.347 428.094C29.147 471.294 11.2804 524.494 12.347 528.627C12.747 530.361 13.947 532.094 15.0137 532.494C16.0804 532.894 24.347 530.627 33.2803 527.427C42.2137 524.094 49.8137 521.694 50.0803 521.827C50.2137 522.094 39.2803 537.561 25.8137 556.227C12.2137 574.894 0.747019 591.427 0.347019 593.161C-1.11965 598.627 1.81368 600.094 13.947 600.094H25.147V642.094C25.147 678.361 25.4137 684.094 27.147 684.094C28.2137 684.094 35.4137 680.761 43.2803 676.627C51.0137 672.494 57.547 669.427 57.8137 669.694C58.0803 669.827 59.547 691.027 61.0137 716.761C64.347 769.694 64.6137 771.961 67.2803 773.027C68.347 773.427 73.2803 771.827 78.347 769.561C83.2803 767.294 87.947 765.427 88.6137 765.427C89.2803 765.427 102.347 793.561 117.547 827.961C132.88 862.361 146.08 890.894 147.147 891.294C148.214 891.694 150.88 890.494 153.147 888.627C155.28 886.761 157.814 885.427 158.614 885.694C159.414 885.961 175.814 906.894 195.014 932.094C227.147 974.494 230.214 978.094 233.814 978.094C237.414 978.094 238.214 977.294 242.614 968.094C245.28 962.627 247.947 958.361 248.614 958.761C249.28 959.161 265.014 975.561 283.68 995.427C302.214 1015.16 318.347 1031.96 319.414 1032.49C320.347 1033.16 322.347 1033.16 323.814 1032.76C326.214 1031.96 326.48 1030.49 326.747 1013.29L327.147 994.627L353.68 1030.89C374.88 1059.69 380.614 1066.76 381.68 1065.16C382.48 1064.09 394.614 1047.69 408.48 1028.76L433.814 994.227L434.214 1013.03C434.48 1030.63 434.747 1031.96 437.28 1032.76C438.747 1033.29 440.88 1032.89 442.08 1031.83C443.28 1030.89 459.414 1013.96 477.947 994.361C496.48 974.761 512.08 958.494 512.48 958.361C512.88 958.227 515.414 962.627 518.214 968.094C526.614 985.027 524.214 986.761 566.08 931.694C601.147 885.294 601.814 884.361 604.48 886.761C608.48 890.227 612.48 891.961 614.08 891.027C614.88 890.494 627.947 862.227 643.014 828.227C658.08 794.227 670.747 766.094 671.147 765.694C671.414 765.294 675.947 766.894 680.88 769.161C690.48 773.694 693.814 774.361 695.147 772.094C695.814 771.161 702.347 679.427 702.48 670.361C702.48 669.827 709.014 672.761 717.147 676.761C725.147 680.761 732.614 684.094 733.814 684.094C735.547 684.094 735.814 678.761 735.814 642.094V600.094H745.947C758.214 600.094 761.68 598.627 760.48 593.827C760.08 591.961 748.614 575.027 735.014 556.361C721.414 537.694 710.614 522.227 710.747 521.961C711.014 521.694 718.747 524.227 727.814 527.561C744.347 533.427 744.347 533.561 747.014 530.894C749.68 528.227 749.68 528.227 745.28 513.827C738.747 492.227 727.68 461.827 713.68 426.227L701.014 394.361L675.014 218.227L648.88 42.0939L637.014 22.6272C630.48 11.8273 624.214 2.22729 623.014 1.29395C620.48 -0.706055 629.68 -10.3062 549.014 78.7606C512.88 118.761 482.214 151.561 480.747 151.827C479.414 152.094 474.08 149.561 469.014 146.227L459.814 140.094H380.214H300.48L291.414 146.227C286.347 149.561 281.147 152.094 279.814 151.827C278.48 151.561 246.88 117.827 209.68 76.7606C144.48 4.76062 140.214 0.0938721 138.214 0.0938721C137.814 0.0938721 131.814 9.29395 125.014 20.3606ZM625.014 18.3606C629.28 27.0272 629.68 29.4272 626.747 29.4272C616.88 29.4272 585.414 81.2939 561.947 136.361L554.08 154.627L554.747 201.961C555.147 228.094 555.014 249.427 554.48 249.427C553.414 249.427 499.814 199.427 499.414 198.094C499.147 197.427 621.28 13.6938 622.08 13.4272C622.347 13.4272 623.547 15.6938 625.014 18.3606ZM200.48 105.961C233.814 155.827 261.147 197.161 261.014 197.961C260.88 199.294 236.48 222.627 213.547 243.294L204.88 251.294L205.28 201.294L205.68 151.427L194.614 126.761C175.814 84.7606 160.214 56.8939 145.547 39.4272C141.014 34.0939 136.48 29.9606 134.747 29.6938C133.147 29.4272 131.814 28.7606 131.814 28.0939C131.814 25.6938 137.68 14.7606 138.747 15.0272C139.28 15.2939 167.147 56.2272 200.48 105.961ZM239.947 124.761C271.014 160.761 297.28 191.161 298.347 192.494C300.08 194.627 299.147 194.761 284.88 194.761H269.68L241.147 151.027C225.414 127.027 204.614 95.1606 194.747 80.0939C184.88 65.0272 178.347 54.2272 180.214 56.0939C181.947 57.9606 208.88 88.8939 239.947 124.761ZM574.88 66.6273C570.614 73.1606 550.08 104.627 529.147 136.627L491.147 194.761H476.08C464.347 194.761 461.28 194.361 461.947 193.027C463.414 190.761 581.414 54.7606 581.947 54.7606C582.214 54.7606 579.014 60.0939 574.88 66.6273ZM671.147 256.227C681.814 326.894 690.48 384.894 690.48 385.161C690.48 385.294 685.947 379.961 680.214 373.161C669.947 360.627 625.547 315.427 608.48 300.227C602.08 294.494 600.614 292.627 603.814 294.494C635.014 312.361 647.414 318.761 649.68 318.494C652.48 318.094 652.48 317.961 652.08 235.427C651.947 189.961 651.414 146.761 651.014 139.427C650.48 132.094 650.614 126.494 651.014 126.894C651.547 127.294 660.614 185.561 671.147 256.227ZM108.614 224.094L107.547 318.761H110.747C112.48 318.761 123.947 313.027 136.347 306.094C148.747 299.027 159.014 293.561 159.147 293.694C159.414 293.961 154.48 298.627 148.214 304.094C130.08 319.961 99.0137 351.427 84.6137 368.494C77.2803 377.027 71.147 383.827 70.8803 383.561C70.347 383.027 108.347 129.427 109.014 129.427C109.28 129.427 109.147 171.961 108.614 224.094ZM321.147 222.361C329.547 233.827 336.88 243.961 337.414 244.894C338.08 245.961 327.814 255.427 306.88 272.894C289.414 287.561 273.68 300.761 271.68 302.494L268.08 305.427L238.347 283.427C221.947 271.294 208.48 260.761 208.48 260.227C208.48 259.561 222.347 246.094 239.147 230.227L269.814 201.427H287.814L305.814 201.561L321.147 222.361ZM521.814 230.361C538.747 246.227 552.614 259.561 552.747 259.961C553.014 260.761 495.414 303.827 493.28 304.494C491.68 304.894 422.214 246.894 422.747 245.561C423.014 245.027 430.347 234.894 439.147 223.027L455.014 201.427H473.147H491.147L521.814 230.361ZM402.747 243.961C425.947 259.561 453.147 280.494 453.147 282.761C453.147 283.561 446.747 302.627 438.88 325.161C422.214 372.894 422.48 371.161 429.68 399.961L434.614 419.161L431.147 423.961C418.347 442.227 381.547 491.294 380.48 491.561C379.68 491.827 367.147 475.694 352.614 455.694L326.08 419.427L331.014 400.094C333.814 389.027 335.814 377.694 335.814 373.427C335.814 367.561 332.747 357.427 321.28 324.094C307.414 284.094 306.88 281.961 309.147 280.094C326.614 265.561 377.147 229.561 380.08 229.427C380.614 229.427 390.88 235.961 402.747 243.961ZM233.814 289.294C249.547 301.027 262.48 311.027 262.48 311.561C262.48 311.961 257.547 320.761 251.547 331.027L240.48 349.561L219.814 348.894C208.48 348.494 180.614 347.694 158.08 347.294C135.547 346.761 117.28 345.961 117.414 345.427C118.614 342.627 202.08 266.894 203.414 267.294C204.347 267.694 217.947 277.561 233.814 289.294ZM602.08 306.761L644.347 346.094L611.814 346.894C593.814 347.427 565.947 348.227 549.814 348.627L520.48 349.427L509.014 330.361L497.547 311.161L527.014 289.027C543.147 276.894 557.147 267.027 558.08 267.161C559.014 267.294 578.747 285.161 602.08 306.761ZM314.347 328.627C324.48 356.627 327.814 367.427 327.814 372.361C327.814 377.561 320.747 408.761 319.147 410.494C318.88 410.761 312.747 403.561 305.414 394.494L292.214 378.094L269.947 364.894C248.614 352.227 247.814 351.694 249.547 348.894C250.614 347.427 256.08 338.094 261.814 328.227C271.814 311.161 273.014 309.827 285.68 299.294C294.88 291.694 299.414 288.761 300.08 289.827C300.48 290.761 307.014 308.227 314.347 328.627ZM500.48 331.027L512.88 351.961L490.747 365.027L468.48 378.094L455.28 394.494C448.08 403.427 441.814 410.627 441.547 410.227C439.947 408.627 432.88 378.361 432.88 372.761C432.88 367.561 435.947 357.561 445.814 330.094C453.014 310.361 459.28 292.761 459.947 291.027C461.147 287.961 461.547 288.227 474.614 299.027C487.947 309.827 488.48 310.494 500.48 331.027ZM191.147 355.961C239.147 357.027 246.48 357.561 246.48 360.094C246.48 361.961 242.614 362.761 221.814 364.761L201.147 366.894L142.214 392.227C108.88 406.494 81.6804 419.027 79.6804 420.894C77.8137 422.761 66.347 439.694 54.347 458.761C42.347 477.827 32.0803 493.427 31.547 493.427C30.8804 493.427 30.4804 492.761 30.4804 491.827C30.4804 488.361 63.147 407.161 66.347 402.494C68.2137 399.827 78.2137 388.094 88.4803 376.361L107.147 354.894H123.814C133.014 354.894 163.28 355.427 191.147 355.961ZM672.08 376.361C682.614 388.361 692.614 399.827 694.214 402.094C696.88 405.827 730.48 489.161 730.48 492.094C730.48 492.894 730.08 493.427 729.414 493.427C728.88 493.427 718.48 477.694 706.214 458.361C693.814 439.027 682.48 421.961 680.88 420.494C679.147 418.894 651.147 406.227 618.614 392.227L559.28 366.761L537.947 364.627C526.214 363.561 516.08 362.227 515.547 361.961C513.814 360.894 514.347 359.161 516.88 358.094C519.014 357.161 578.88 355.427 628.614 355.027L652.88 354.761L672.08 376.361ZM270.614 375.294C286.08 382.494 286.88 383.294 314.747 419.561C316.08 421.294 309.947 438.361 308.347 437.427C307.68 437.161 302.08 429.561 296.08 420.761C289.947 411.961 283.414 403.161 281.68 401.294C279.814 399.427 267.147 392.761 252.08 386.094C237.68 379.561 225.28 373.827 224.614 373.294C224.08 372.761 228.614 371.961 234.614 371.561C245.814 370.761 253.814 370.094 256.614 369.694C257.414 369.561 263.814 372.094 270.614 375.294ZM530.48 371.961L537.68 372.761L510.08 385.294C478.747 399.561 479.947 398.627 463.147 423.027C457.28 431.561 452.08 438.227 451.68 437.961C449.947 436.894 445.014 421.294 445.947 419.694C448.214 416.094 467.147 392.361 472.347 386.894C475.947 383.027 481.814 379.161 489.814 375.427C501.547 369.827 502.08 369.694 512.48 370.361C518.347 370.761 526.48 371.427 530.48 371.961ZM231.014 387.027L256.48 396.761L229.014 397.161L201.547 397.427L171.014 425.694C104.347 487.294 97.547 492.761 75.147 503.427C66.0804 507.694 26.4804 521.961 25.8137 521.161C25.2804 520.494 83.8137 428.894 86.2137 426.361C89.947 422.761 195.814 377.561 201.014 377.561C203.68 377.427 216.347 381.561 231.014 387.027ZM616.48 400.094C644.347 411.961 669.014 422.894 671.28 424.227C674.214 425.961 683.947 440.227 704.88 473.161C721.147 498.761 734.48 519.961 734.48 520.361C734.48 523.427 686.48 504.761 672.08 496.094C656.614 487.027 649.147 480.761 601.147 436.227L559.147 397.427L531.814 397.161L504.48 396.761L529.147 387.161C549.28 379.294 554.88 377.561 559.814 377.961C563.947 378.227 581.814 385.161 616.48 400.094ZM221.28 469.694L241.814 524.761L259.014 530.627L276.214 536.494L286.08 549.827C291.414 557.294 295.68 563.961 295.414 564.627C295.147 565.427 289.28 582.494 282.347 602.361C275.414 622.361 269.547 638.761 269.147 638.761C268.747 638.761 267.014 633.561 265.28 627.294C263.547 620.894 260.88 614.494 259.28 612.761C257.68 611.161 243.414 602.094 227.547 592.761C194.214 573.161 198.214 578.361 191.814 546.761C182.747 501.827 181.68 467.961 188.614 440.761C190.747 432.094 198.347 414.761 199.814 414.761C200.347 414.761 209.947 439.561 221.28 469.694ZM566.48 424.627C579.947 454.627 579.68 502.894 565.68 561.561L562.347 575.561L532.614 593.161C502.48 611.027 499.414 613.294 498.08 618.094C497.68 619.561 495.947 625.294 494.48 630.761L491.547 640.761L478.347 602.761C471.147 581.827 465.28 564.094 465.28 563.427C465.28 562.627 469.68 556.361 474.88 549.427L484.48 536.761L501.68 530.761L519.014 524.761L536.08 478.761C560.347 413.561 559.947 414.627 561.414 415.561C562.214 416.094 564.48 420.094 566.48 424.627ZM181.28 440.227C176.88 461.427 175.414 475.827 176.08 494.894L176.614 513.027L147.947 529.827C132.08 539.027 119.014 546.227 118.88 545.694C117.28 540.627 110.614 492.761 111.414 491.961C124.08 479.961 183.014 426.894 183.414 427.161C183.68 427.427 182.614 433.294 181.28 440.227ZM617.147 462.761C634.347 478.361 648.88 491.561 649.414 491.961C649.947 492.361 648.614 503.827 646.347 517.427C644.214 531.027 642.48 542.894 642.48 543.694C642.48 544.627 641.814 545.427 641.014 545.427C640.214 545.427 627.147 538.094 611.814 529.161L584.08 513.027L584.747 496.227C585.547 478.361 584.08 462.227 579.814 441.561C578.347 434.627 577.147 428.361 577.147 427.561C577.147 426.894 579.147 428.094 581.547 430.227C583.814 432.494 599.947 447.161 617.147 462.761ZM236.614 445.561L254.48 454.894L279.147 455.694C292.747 456.094 303.814 457.027 303.814 457.561C303.814 458.494 277.28 526.761 276.48 527.694C276.214 528.094 249.014 520.361 248.347 519.827C248.08 519.427 223.68 453.827 219.014 441.027C218.08 438.361 217.68 436.094 218.08 436.094C218.48 436.094 226.88 440.361 236.614 445.561ZM543.414 437.027C543.014 437.694 535.947 456.361 527.814 478.761C519.547 501.161 512.614 519.561 512.48 519.827C511.947 520.361 484.614 527.961 484.214 527.694C483.414 526.894 457.147 459.161 457.147 457.961C457.147 457.027 465.147 456.227 481.68 455.827L506.347 455.027L523.414 445.694C539.28 437.027 544.88 434.627 543.414 437.027ZM324.347 451.694C325.547 458.894 327.147 470.094 327.814 476.761C329.547 492.494 329.547 536.494 327.814 550.761C325.947 565.294 322.347 584.094 321.28 584.094C320.347 583.961 284.88 534.494 284.747 533.027C284.48 531.161 320.347 438.761 321.28 438.761C321.68 438.761 323.014 444.627 324.347 451.694ZM458.347 485.961C467.947 510.761 475.814 531.827 475.814 532.627C475.814 534.227 444.48 578.627 440.614 582.627C438.48 584.627 437.28 579.961 433.547 556.761C431.014 540.494 430.614 491.961 433.014 474.094C435.547 454.361 438.747 438.494 439.814 439.694C440.48 440.227 448.747 461.027 458.347 485.961ZM356.347 474.361C369.147 490.761 380.08 504.094 380.347 504.094C380.747 504.094 391.947 490.361 405.28 473.427C418.614 456.627 429.68 442.894 429.947 443.161C430.08 443.294 429.014 450.094 427.814 458.227C420.747 501.161 421.547 547.561 429.68 578.361L431.547 585.294L425.414 584.361C417.147 583.161 343.68 583.161 335.28 584.361C329.814 585.294 329.014 585.161 329.68 583.294C332.08 576.894 335.947 552.494 337.147 535.561C339.014 509.694 336.614 474.094 331.014 446.094C329.947 441.027 328.347 439.294 356.347 474.361ZM106.48 525.027C108.08 538.227 109.28 549.827 109.014 550.627C108.747 551.294 91.147 560.627 69.8137 571.161C33.6804 589.027 30.4804 590.361 21.4137 591.294L11.6804 592.094L22.0804 577.161C27.6804 568.894 39.547 551.827 48.0803 539.427L63.8137 516.761L82.8803 507.827C93.2803 503.027 102.214 499.427 102.614 499.827C103.014 500.361 104.747 511.694 106.48 525.027ZM678.48 508.094L696.48 516.361L721.814 552.761C735.68 572.761 747.28 589.827 747.547 590.627C747.814 591.561 745.147 591.694 739.014 591.161C731.014 590.361 726.08 588.361 691.947 571.694C671.014 561.561 653.147 552.627 652.48 551.961C650.614 550.494 657.147 498.494 659.147 499.294C659.814 499.561 668.614 503.561 678.48 508.094ZM183.947 547.561C186.88 561.294 190.347 575.027 191.68 578.094C193.014 581.161 197.947 589.027 202.747 595.561C207.414 602.094 212.48 609.161 213.947 611.427L216.48 615.427L212.347 612.761C170.08 585.561 123.814 555.294 123.814 554.761C123.947 553.827 177.68 521.694 178.347 522.227C178.48 522.361 181.147 533.827 183.947 547.561ZM637.014 554.761C637.014 555.561 545.947 614.627 545.414 614.094C545.147 613.961 550.08 606.627 556.214 597.827C562.48 589.161 568.48 579.827 569.547 577.027C570.747 574.361 573.814 561.427 576.48 548.361C579.147 535.427 581.547 523.961 581.814 523.161C582.214 522.094 592.614 527.561 609.68 537.827C624.747 546.761 637.014 554.361 637.014 554.761ZM119.28 578.361L123.014 593.161L104.48 612.361C74.6137 643.294 54.8803 660.361 38.0803 670.094L31.547 673.827L32.4804 635.961C33.0137 615.161 33.8137 597.694 34.347 597.161C34.8803 596.627 52.8804 588.094 74.4803 578.361C99.547 567.027 114.214 561.161 114.747 561.961C115.28 562.761 117.28 570.094 119.28 578.361ZM687.147 578.894C708.48 588.494 726.214 596.627 726.614 597.161C727.147 597.694 727.814 614.761 728.214 635.027C728.747 664.094 728.614 672.094 727.28 672.094C724.214 672.094 702.747 656.894 689.814 645.561C673.147 630.894 638.48 594.361 638.48 591.427C638.48 586.894 645.814 561.427 647.147 561.427C647.947 561.427 665.947 569.294 687.147 578.894ZM140.08 574.494C162.48 589.827 194.214 610.227 214.08 622.227C229.414 631.427 231.814 633.294 232.48 636.761C233.68 643.427 247.947 787.027 247.547 788.227C247.28 788.894 232.747 762.361 215.147 729.161C180.08 663.027 172.88 651.027 147.28 615.427C130.88 592.494 129.947 590.894 127.014 579.427C123.947 567.561 123.28 564.094 124.347 564.094C124.614 564.094 131.68 568.761 140.08 574.494ZM637.147 564.894C637.147 566.627 631.68 587.561 630.48 590.361C629.814 591.961 621.147 604.627 611.28 618.494C587.414 651.827 578.08 667.561 543.147 733.694C527.014 764.227 513.547 788.894 513.28 788.627C513.014 788.361 516.214 753.294 520.614 710.761L528.48 633.294L552.88 618.361C566.347 610.094 590.347 594.627 606.214 583.961C634.214 565.027 637.147 563.161 637.147 564.894ZM310.48 584.761L317.414 594.094L316.614 606.761C316.08 613.694 315.414 623.961 315.014 629.561L314.08 639.694L295.014 644.094C284.48 646.494 275.547 648.227 275.147 647.961C274.347 647.027 301.414 574.627 302.614 575.027C303.147 575.294 306.747 579.561 310.48 584.761ZM472.614 611.027C480.08 631.027 485.547 647.561 485.014 647.827C484.347 648.094 475.547 646.361 465.28 643.961L446.747 639.694L446.08 632.894C445.547 629.161 444.88 618.894 444.347 610.094L443.547 594.094L450.614 584.361C454.48 579.161 457.947 574.761 458.347 574.761C458.88 574.761 465.28 591.161 472.614 611.027ZM432.614 593.694C434.347 595.294 434.88 599.561 435.547 613.561L436.214 631.161L431.68 627.694C429.147 625.827 423.547 622.627 419.28 620.627C411.814 617.161 410.88 617.161 397.28 617.961C389.547 618.494 381.947 619.027 380.48 619.027C379.014 619.027 371.414 618.494 363.68 617.961C350.08 617.161 349.147 617.161 341.68 620.627C337.414 622.627 331.947 625.694 329.547 627.561L325.147 630.894V615.161C325.147 594.894 326.08 593.027 335.814 591.961C339.814 591.427 362.747 591.161 386.747 591.294C425.28 591.427 430.614 591.694 432.614 593.694ZM257.68 630.761C259.547 638.894 261.147 646.361 261.147 647.294C261.147 650.227 267.814 657.427 270.347 657.427C271.68 657.427 281.947 655.294 293.28 652.761L313.814 648.094L319.147 653.827C322.08 657.027 334.214 670.494 346.214 683.961L367.947 708.094L358.214 712.627C352.88 715.161 341.28 720.494 332.48 724.627C320.08 730.361 316.214 731.694 315.014 730.361C312.747 727.961 213.147 596.227 213.147 595.694C213.147 595.427 222.347 599.961 233.68 605.694L254.214 616.094L257.68 630.761ZM547.014 596.361C546.08 597.961 447.014 729.027 445.147 731.161C444.214 732.227 394.347 709.294 394.214 707.694C394.214 707.027 406.08 693.427 420.48 677.294C439.28 656.227 447.414 648.227 448.88 648.627C454.08 650.227 487.947 657.427 490.214 657.427C495.147 657.427 498.214 651.827 501.814 636.094C503.68 627.694 505.547 619.694 505.947 618.494C506.347 617.161 515.414 611.561 526.88 605.427C538.08 599.561 547.28 594.761 547.547 594.761C547.814 594.761 547.547 595.561 547.014 596.361ZM145.947 628.761L164.88 655.827L150.214 675.027C112.214 724.894 101.014 738.894 90.6137 749.694C80.6137 760.227 74.4803 764.494 72.2137 762.361C71.8137 761.961 70.347 739.561 69.0137 712.627L66.6137 663.561L73.547 656.227C93.147 635.161 125.814 601.427 126.347 601.427C126.747 601.561 135.68 613.827 145.947 628.761ZM664.48 632.227L693.814 663.027L693.414 671.961C692.747 691.027 690.48 738.761 689.68 750.361C688.88 762.094 688.747 762.761 685.814 762.761C683.68 762.761 679.014 758.761 670.347 749.694C658.88 737.694 650.747 727.694 609.947 674.361L595.814 655.961L614.747 628.761C625.28 613.694 634.08 601.427 634.48 601.427C634.88 601.427 648.48 615.294 664.48 632.227ZM295.414 719.027L341.814 781.294L356.88 781.427C365.014 781.427 371.814 781.961 371.814 782.627C371.814 785.427 329.28 869.161 327.547 869.827C326.48 870.227 324.88 870.094 324.08 869.561C323.28 869.161 306.347 835.694 286.48 795.427L250.347 722.094L247.014 689.427C245.28 671.427 243.814 655.294 243.814 653.427V650.094L246.48 653.427C247.947 655.294 269.947 684.761 295.414 719.027ZM513.814 687.561L510.48 722.094L474.88 794.094C455.414 833.694 438.48 867.161 437.414 868.494C435.68 870.361 435.014 870.494 432.88 869.161C431.547 868.227 420.88 848.094 409.147 824.361L387.947 781.427H403.28H418.48L467.414 715.961C494.347 679.827 516.48 650.894 516.747 651.694C517.014 652.361 515.68 668.494 513.814 687.561ZM160.88 773.961C157.014 873.694 156.88 875.161 154.08 877.561C152.48 878.894 150.747 879.961 150.347 880.094C149.947 880.094 137.68 853.027 123.28 819.827L97.0137 759.561L107.014 744.894C116.614 730.761 163.547 671.427 164.48 672.361C164.747 672.627 163.147 718.361 160.88 773.961ZM623.814 705.427C636.48 721.161 650.614 739.827 655.28 746.894L663.814 759.561L637.414 819.827C623.014 853.027 610.88 880.094 610.48 880.094C610.08 879.961 608.48 878.894 606.747 877.427C603.814 875.027 603.814 874.894 599.814 774.494C597.547 719.294 595.814 673.561 595.814 672.761C595.814 670.761 599.147 674.761 623.814 705.427ZM208.347 819.694L242.48 949.294L238.214 958.094C235.814 962.894 233.547 966.627 233.014 966.494C232.48 966.227 216.88 946.627 198.347 922.761L164.747 879.427L168.347 797.427C171.947 714.361 173.28 689.027 173.814 689.694C174.08 689.961 189.547 748.361 208.347 819.694ZM591.947 785.961L596.08 879.161L592.214 884.227C576.214 905.827 528.214 966.627 527.414 966.361C526.88 966.227 524.614 962.094 522.347 957.427L518.347 948.627L551.147 824.094C589.68 677.961 586.88 688.227 587.28 690.761C587.547 691.827 589.547 734.761 591.947 785.961ZM203.147 728.094C211.814 744.627 226.08 771.427 234.747 787.827C260.48 835.961 275.414 869.294 302.614 939.961L317.28 977.827L316.88 997.827L316.48 1017.69L284.08 982.894C266.347 963.827 251.28 946.761 250.48 945.161C249.147 941.961 186.48 700.094 186.48 698.094C186.48 696.361 186.614 696.494 203.147 728.094ZM542.347 822.094C514.88 928.094 509.814 946.494 506.747 950.094C504.747 952.494 489.947 968.627 473.814 985.961L444.48 1017.56L444.08 997.561L443.68 977.561L453.28 952.494C476.08 892.361 494.88 847.961 511.947 814.761C529.414 780.761 573.68 697.561 574.08 697.961C574.347 698.094 560.08 753.961 542.347 822.094ZM409.947 724.361C425.547 731.961 438.347 738.494 438.48 739.027C438.48 739.694 433.28 747.294 426.88 756.094L415.147 771.961L380.48 772.094H345.814L333.547 755.427L321.28 738.894L349.547 724.894C365.147 717.294 378.614 710.894 379.68 710.894C380.747 710.761 394.347 716.894 409.947 724.361ZM287.547 816.094C307.28 856.627 319.547 880.361 321.547 881.827C324.48 884.094 325.147 884.227 328.747 882.227C331.947 880.627 335.547 875.027 346.48 853.827C353.947 839.294 364.48 819.161 369.814 809.027C375.014 798.761 379.814 790.494 380.48 790.494C381.014 790.494 391.814 810.494 404.347 834.894C428.88 882.627 431.147 885.827 437.947 882.627C441.147 881.027 446.48 870.894 472.88 816.761C489.947 781.561 504.48 752.361 504.88 751.827C505.414 751.294 504.48 765.294 502.747 783.161L499.68 815.427L467.547 896.761L435.414 978.094L410.08 1014.09C396.08 1033.83 383.68 1051.43 382.48 1053.03C380.214 1055.83 380.08 1055.69 369.68 1041.03C363.947 1032.76 351.814 1015.69 342.88 1003.03C333.814 990.361 325.547 978.094 324.48 975.694C323.414 973.427 308.747 936.361 291.814 893.561L261.147 815.694L258.48 788.227C257.014 773.161 255.547 758.361 255.147 755.427C254.614 752.094 254.747 750.627 255.547 751.427C256.214 752.094 270.614 781.294 287.547 816.094Z" fill="black" stroke="white" stroke-width="4" mask="url(#path-1-inside-1_4_2)"/>
</svg>
